<svg width="80" height="31" viewBox="0 0 80 31" fill="none" xmlns="http://www.w3.org/2000/svg">
<path fill-rule="evenodd" clip-rule="evenodd" d="M39.5 29C32.0442 29 26 22.9558 26 15.5C26 8.04416 32.0442 2 39.5 2C46.9558 2 53 8.04416 53 15.5C53 22.9558 46.9558 29 39.5 29ZM48.5812 21.7893C49.8197 20.0045 50.5455 17.837 50.5455 15.5C50.5455 9.39974 45.6002 4.45453 39.5 4.45453C33.3998 4.45453 28.4545 9.39974 28.4545 15.5C28.4545 17.837 29.1803 20.0045 30.4188 21.7893C31.8 19.9649 35.0458 19.1818 39.5 19.1818C43.9543 19.1818 47.2 19.9649 48.5812 21.7893ZM46.8203 23.7715C46.4611 22.4799 43.8806 21.6363 39.5 21.6363C35.1194 21.6363 32.5389 22.4799 32.1797 23.7715C34.1286 25.4976 36.6919 26.5454 39.5 26.5454C42.3081 26.5454 44.8714 25.4976 46.8203 23.7715ZM39.5 8.13634C36.5289 8.13634 34.5909 10.2911 34.5909 13.0454C34.5909 17.2518 36.752 19.1818 39.5 19.1818C42.2222 19.1818 44.4091 17.3159 44.4091 13.2909C44.4091 10.4946 42.4629 8.13634 39.5 8.13634ZM37.0455 13.0455C37.0455 15.8305 38.0496 16.7273 39.5 16.7273C40.9454 16.7273 41.9545 15.8662 41.9545 13.2909C41.9545 11.7574 40.9919 10.5909 39.5 10.5909C37.946 10.5909 37.0455 11.5922 37.0455 13.0455Z" fill="#FFB600"/>
</svg>
