<svg width="80" height="31" viewBox="0 0 80 31" fill="none" xmlns="http://www.w3.org/2000/svg">
<path fill-rule="evenodd" clip-rule="evenodd" d="M40.5765 10.2735C40.5542 10.2913 40.5317 10.3091 40.5092 10.327C40.5002 10.3216 40.4919 10.3172 40.4842 10.3131C40.47 10.3055 40.4579 10.2991 40.4475 10.2902C40.0452 9.93118 39.5937 9.65171 39.0977 9.44042C38.5119 9.19097 37.8985 9.07569 37.2657 9.05382C37.1902 9.05115 37.1146 9.05732 37.0388 9.0635C36.9859 9.06782 36.9328 9.07216 36.8795 9.07349C36.6334 9.07957 36.3918 9.11787 36.1525 9.17117C35.0563 9.41137 34.0763 10.0216 33.3775 10.8991C33.1077 11.2356 32.8847 11.607 32.7145 12.0033C32.5041 12.4898 32.3703 12.9968 32.3358 13.5226C32.2975 14.1082 32.3378 14.6894 32.5026 15.2608C32.732 16.0561 33.125 16.7571 33.7056 17.341C35.6786 19.316 37.6524 21.29 39.6269 23.263C39.7408 23.378 39.8763 23.4694 40.0257 23.532C40.175 23.5945 40.3353 23.627 40.4972 23.6275C40.6591 23.628 40.8195 23.5966 40.9693 23.535C41.119 23.4734 41.2551 23.3828 41.3697 23.2685C42.6885 21.9585 44.0071 20.6481 45.3254 19.3376C45.94 18.7258 46.5537 18.1132 47.1665 17.4995C47.279 17.3862 47.3875 17.2692 47.4933 17.1502C47.8306 16.7687 48.104 16.3353 48.303 15.8667C48.5278 15.3441 48.6514 14.7966 48.6902 14.2314C48.7146 13.8788 48.6968 13.5246 48.637 13.1763C48.5451 12.6389 48.3799 12.1253 48.1179 11.6436C47.8054 11.0689 47.4016 10.5723 46.8946 10.1582C46.3944 9.74913 45.8372 9.4487 45.2176 9.26679C44.665 9.10454 44.1029 9.02561 43.5242 9.07012C43.3057 9.08524 43.0882 9.11224 42.8727 9.15099C42.1067 9.29263 41.3879 9.62236 40.7811 10.1105C40.7134 10.1649 40.6453 10.2189 40.5765 10.2735ZM40.5446 20.6457C40.5312 20.6577 40.5168 20.6708 40.5008 20.6856C40.4862 20.6723 40.4728 20.6603 40.4603 20.6491C40.436 20.6275 40.4152 20.6088 40.3953 20.5891C38.7603 18.9547 37.1248 17.3207 35.4887 15.6871C35.131 15.3299 34.8903 14.9065 34.7997 14.4112C34.711 13.9292 34.7413 13.4498 34.9423 12.994C35.277 12.2287 35.8504 11.7338 36.6649 11.5491C37.4271 11.3764 38.1243 11.5503 38.741 12.0311C38.8446 12.1124 38.939 12.2051 39.033 12.2974L39.0459 12.3102C39.1497 12.412 39.2523 12.5149 39.355 12.6179C39.4686 12.7318 39.5822 12.8457 39.6972 12.9581C39.907 13.1632 40.1637 13.2578 40.455 13.2699C40.8356 13.2859 41.1498 13.1481 41.413 12.8755C41.6316 12.649 41.8557 12.4274 42.0809 12.2074C42.4482 11.8487 42.8818 11.6156 43.3914 11.5327C43.8919 11.4513 44.3827 11.4944 44.8377 11.7207C45.5739 12.0866 46.0574 12.6627 46.2128 13.4855C46.3522 14.2227 46.1748 14.8836 45.7208 15.474C45.6455 15.5682 45.5647 15.6578 45.4787 15.7424C45.3454 15.8783 45.2102 16.0124 45.0751 16.1464C45.0357 16.1855 44.9963 16.2246 44.957 16.2636L40.6071 20.5873C40.588 20.6063 40.5679 20.6245 40.5446 20.6457Z" fill="#BDBDBD"/>
<path fill-rule="evenodd" clip-rule="evenodd" d="M40.6683 2.01081C40.6135 2.01162 40.5587 2.01242 40.5039 2.01242L40.5031 2C40.4244 2.00365 40.3456 2.00686 40.2669 2.01006C40.0918 2.01719 39.9167 2.02431 39.742 2.03636C39.4335 2.05771 39.1249 2.08151 38.8176 2.11554C38.5577 2.14452 38.297 2.17777 38.0409 2.23043C37.6502 2.31039 37.2602 2.40213 36.8734 2.50214C36.1711 2.68354 35.4945 2.93907 34.8376 3.24468C34.1531 3.56223 33.4963 3.93633 32.8741 4.36308C32.31 4.7513 31.7755 5.18083 31.275 5.64813C31.085 5.82491 30.9062 6.01374 30.7273 6.20255C30.6689 6.26428 30.6104 6.326 30.5516 6.3873C30.2531 6.69834 29.9813 7.0319 29.7213 7.37528C29.317 7.90848 28.9526 8.46742 28.6402 9.05819C28.4429 9.4312 28.2645 9.8147 28.0915 10.1996C27.814 10.8172 27.6066 11.46 27.435 12.1145C27.244 12.8432 27.123 13.5842 27.0526 14.3331C27.0214 14.6666 27.0101 15.0025 27.0008 15.3377C26.9978 15.4471 27.0036 15.5564 27.0093 15.666C27.0138 15.7497 27.0182 15.8336 27.0187 15.9178C27.0194 16.2146 27.0372 16.5111 27.0719 16.8059C27.0831 16.8982 27.0922 16.9908 27.1013 17.0833C27.1166 17.2385 27.1319 17.3937 27.1571 17.5476C27.2349 18.0222 27.3322 18.493 27.4541 18.9588C27.6572 19.7336 27.9298 20.4885 28.2684 21.2144C28.537 21.798 28.8512 22.3597 29.2079 22.8942C29.3518 23.1082 29.5036 23.3169 29.6555 23.5256C29.6987 23.585 29.7419 23.6444 29.7849 23.7039C29.8587 23.806 29.8602 23.8118 29.8003 23.921C29.6155 24.2578 29.4098 24.5797 29.1583 24.8718C28.8748 25.2011 28.5638 25.4952 28.1691 25.6893C28.091 25.7257 28.0165 25.7696 27.9468 25.8202C27.3831 26.2495 27.1307 26.8154 27.2583 27.5168C27.3726 28.1436 27.742 28.5766 28.3458 28.8034C28.6248 28.9081 28.9178 28.9321 29.2074 28.945C29.5106 28.9583 29.8152 28.9464 30.1193 28.9346C30.1856 28.932 30.2519 28.9294 30.3181 28.9271C30.6275 28.916 30.932 28.8586 31.236 28.7996C31.9716 28.6568 32.6745 28.4157 33.3477 28.0903C33.5832 27.9764 33.8105 27.8452 34.0377 27.7141C34.1129 27.6707 34.1882 27.6273 34.2637 27.5845C34.3371 27.543 34.3959 27.5378 34.4771 27.5766C34.7599 27.7145 35.0459 27.845 35.3351 27.9683C35.8656 28.1956 36.4129 28.3816 36.972 28.5246C37.3674 28.625 37.7671 28.7102 38.1671 28.7911C38.3982 28.8381 38.6329 28.8694 38.8674 28.8969C39.0934 28.9233 39.321 28.9394 39.5482 28.9533C39.8659 28.9727 40.1838 28.9904 40.5019 28.9992C40.6194 29.0026 40.7373 28.9948 40.8552 28.987C40.8964 28.9842 40.9377 28.9815 40.9789 28.9793C41.072 28.9742 41.1652 28.97 41.2584 28.9658C41.492 28.9553 41.7255 28.9447 41.9576 28.9201C42.3115 28.8829 42.6654 28.8296 43.0149 28.7649C44.1675 28.5503 45.2868 28.1853 46.3441 27.6791C46.8458 27.4389 47.3314 27.1666 47.798 26.864C48.2361 26.5813 48.6617 26.2807 49.0576 25.9407L49.091 25.912C49.3574 25.6831 49.624 25.454 49.8798 25.2137C50.23 24.8876 50.5565 24.5369 50.8566 24.1644L50.8685 24.1495C51.1062 23.8519 51.3444 23.5539 51.5659 23.2444C51.852 22.8451 52.1127 22.4283 52.3466 21.9964C52.6088 21.5161 52.8436 21.0213 53.0496 20.5144C53.2483 20.0236 53.4151 19.5205 53.5491 19.0083C53.6418 18.6509 53.7252 18.2903 53.7911 17.9271C53.848 17.6129 53.8842 17.2946 53.9203 16.9769C53.9229 16.9536 53.9256 16.9302 53.9282 16.9069C53.9316 16.8766 53.9351 16.8464 53.9386 16.8161C53.9665 16.5732 53.9945 16.3296 53.998 16.086C54.0045 15.6384 53.9948 15.1901 53.9771 14.7427C53.9648 14.4385 53.9336 14.1346 53.9001 13.8318C53.8712 13.5723 53.8359 13.3118 53.7877 13.0547C53.6937 12.5476 53.5712 12.0462 53.421 11.5527C53.177 10.7535 52.8585 9.97892 52.4697 9.2392C52.181 8.69011 51.855 8.1615 51.4938 7.65708C51.1624 7.19479 50.8068 6.75126 50.4163 6.33801C50.0761 5.97793 49.7231 5.62976 49.3462 5.30629C48.9654 4.97663 48.5674 4.66731 48.1539 4.37964C47.5859 3.98748 46.993 3.63697 46.3673 3.34379C46.3494 3.33541 46.3315 3.32703 46.3136 3.31865C46.0975 3.21736 45.8811 3.11597 45.6608 3.02408C45.1637 2.81668 44.6567 2.63489 44.1347 2.50098C43.7315 2.39747 43.325 2.30069 42.9159 2.22306C42.5906 2.16092 42.26 2.12415 41.9305 2.0875L41.9208 2.08643C41.6264 2.05318 41.3305 2.03157 41.0347 2.01436C40.9128 2.00721 40.7906 2.00901 40.6683 2.01081ZM31.2207 26.2845C31.2109 26.285 31.2011 26.2855 31.1915 26.2865L31.1775 26.2969L31.1884 26.2851C31.2097 26.2523 31.2311 26.2197 31.2526 26.187C31.3013 26.1127 31.35 26.0385 31.3975 25.9634C31.449 25.8819 31.5016 25.801 31.5543 25.72C31.6824 25.5229 31.8106 25.3258 31.9232 25.1201C32.107 24.7844 32.2837 24.4419 32.4262 24.0871C32.6104 23.6277 32.5365 23.1919 32.2061 22.811C31.7309 22.2633 31.2963 21.687 30.9412 21.053C30.7882 20.7789 30.637 20.5025 30.5011 20.2192C30.2267 19.6478 30.0109 19.0539 29.8417 18.4425C29.7249 18.0158 29.6329 17.5827 29.5664 17.1454C29.5232 16.8696 29.4952 16.5917 29.4827 16.3129C29.4637 15.8699 29.4535 15.426 29.4598 14.9828C29.4637 14.7089 29.4961 14.4341 29.5319 14.1624C29.5745 13.8393 29.6258 13.5169 29.6888 13.1973C29.8057 12.6053 29.9837 12.0303 30.2015 11.4676C30.3486 11.0856 30.5182 10.7127 30.7094 10.3507C31.0111 9.77935 31.3619 9.23526 31.758 8.72464C32.1053 8.27826 32.4778 7.85452 32.8931 7.47142C33.1838 7.2032 33.4897 6.95077 33.7974 6.70209C34.1226 6.43944 34.4723 6.2103 34.8313 5.99617C35.294 5.71991 35.7763 5.47775 36.2743 5.27162C36.7672 5.06598 37.2753 4.89887 37.7941 4.77181C38.0831 4.70174 38.3764 4.64915 38.6694 4.59663C38.7146 4.58854 38.7597 4.58045 38.8048 4.5723C39.1344 4.51044 39.4685 4.47522 39.8037 4.46698C39.9317 4.46468 40.0597 4.46028 40.1877 4.45589C40.4778 4.44592 40.768 4.43596 41.0569 4.45041C41.9478 4.49492 42.8242 4.63841 43.6806 4.89718C44.1916 5.0522 44.6914 5.2418 45.1766 5.46466C45.9208 5.80533 46.609 6.23722 47.2588 6.73108C47.6947 7.06282 48.0942 7.43635 48.4757 7.82981C49.6301 9.0233 50.4986 10.4629 51.016 12.0402C51.1943 12.5795 51.3342 13.1294 51.4158 13.6922C51.4455 13.8974 51.4691 14.1036 51.4926 14.3097C51.5017 14.3891 51.5108 14.4685 51.5202 14.5478C51.5667 14.9412 51.5821 15.3376 51.5665 15.7334C51.5545 16.0434 51.5273 16.353 51.5002 16.6622C51.4981 16.6866 51.496 16.711 51.4938 16.7354C51.4485 17.2542 51.3484 17.7638 51.2181 18.2674C51.0701 18.8472 50.8742 19.4137 50.6321 19.961C50.3592 20.5726 50.0437 21.1597 49.664 21.7112C49.4223 22.0624 49.1713 22.4069 48.8834 22.7222C48.8387 22.7711 48.7943 22.8201 48.7498 22.8691C48.5627 23.0755 48.3754 23.282 48.1747 23.4743C47.5379 24.0869 46.8302 24.6212 46.0664 25.0658C45.3661 25.4742 44.6227 25.8036 43.8497 26.0481C43.3327 26.2108 42.8072 26.3436 42.2689 26.4159C42.0161 26.4498 41.7621 26.4762 41.5082 26.5026C41.4504 26.5086 41.3927 26.5146 41.3349 26.5207C40.8315 26.5739 40.326 26.5571 39.8229 26.5371C39.4208 26.5211 39.0197 26.4666 38.6213 26.3966C38.0277 26.2935 37.4433 26.1435 36.8735 25.9481C36.2624 25.7365 35.6714 25.4706 35.1078 25.1535C35.0847 25.1405 35.0616 25.1273 35.0385 25.1141C34.8938 25.0314 34.7493 24.9487 34.5832 24.9077C34.2021 24.8131 33.8523 24.8853 33.5456 25.1182C33.1341 25.4316 32.6913 25.7018 32.2242 25.9242C31.9198 26.0685 31.6012 26.1749 31.2809 26.2763C31.2619 26.2824 31.2413 26.2834 31.2207 26.2845Z" fill="#BDBDBD"/>
</svg>
