<svg width="30" height="30" viewBox="0 0 30 30" fill="none" xmlns="http://www.w3.org/2000/svg">
<path d="M13.3688 11.1713V12.8925H12.1088V14.9962H13.3688V21.25H15.9588V14.9962H17.6963C17.6963 14.9962 17.86 13.9875 17.9388 12.8837H15.9688V11.4462C15.9688 11.23 16.2513 10.9413 16.5313 10.9413H17.9413V8.75H16.0225C13.305 8.75 13.3688 10.8563 13.3688 11.1713Z" fill="white"/>
<path d="M15 25C17.6522 25 20.1957 23.9464 22.0711 22.0711C23.9464 20.1957 25 17.6522 25 15C25 12.3478 23.9464 9.80429 22.0711 7.92893C20.1957 6.05357 17.6522 5 15 5C12.3478 5 9.8043 6.05357 7.92893 7.92893C6.05357 9.80429 5 12.3478 5 15C5 17.6522 6.05357 20.1957 7.92893 22.0711C9.8043 23.9464 12.3478 25 15 25ZM15 27.5C8.09625 27.5 2.5 21.9037 2.5 15C2.5 8.09625 8.09625 2.5 15 2.5C21.9038 2.5 27.5 8.09625 27.5 15C27.5 21.9037 21.9038 27.5 15 27.5Z" fill="white"/>
</svg>
