<svg width="80" height="31" viewBox="0 0 80 31" fill="none" xmlns="http://www.w3.org/2000/svg">
<path d="M50.6111 10.1226L42.2778 3.03008C41.5139 2.36673 40.5249 2 39.5 2C38.4751 2 37.4862 2.36673 36.7223 3.03008L28.389 10.1226C27.9479 10.5056 27.5958 10.9755 27.3563 11.501C27.1169 12.0264 26.9954 12.5954 27.0001 13.1699V24.9548C27.0001 26.0277 27.4391 27.0566 28.2205 27.8152C29.0019 28.5738 30.0617 29 31.1668 29H47.8333C48.9384 29 49.9982 28.5738 50.7796 27.8152C51.561 27.0566 52 26.0277 52 24.9548V13.1565C52.0027 12.5842 51.8803 12.0178 51.6409 11.4948C51.4015 10.9718 51.0505 10.5041 50.6111 10.1226ZM42.2778 26.3032H36.7223V19.5613C36.7223 19.2037 36.8686 18.8607 37.1291 18.6078C37.3895 18.355 37.7428 18.2129 38.1112 18.2129H40.8889C41.2573 18.2129 41.6105 18.355 41.871 18.6078C42.1315 18.8607 42.2778 19.2037 42.2778 19.5613V26.3032ZM49.2222 24.9548C49.2222 25.3125 49.0759 25.6554 48.8154 25.9083C48.5549 26.1612 48.2017 26.3032 47.8333 26.3032H45.0556V19.5613C45.0556 18.4885 44.6166 17.4595 43.8352 16.7009C43.0538 15.9423 41.994 15.5161 40.8889 15.5161H38.1112C37.0061 15.5161 35.9463 15.9423 35.1649 16.7009C34.3835 17.4595 33.9445 18.4885 33.9445 19.5613V26.3032H31.1668C30.7984 26.3032 30.4451 26.1612 30.1847 25.9083C29.9242 25.6554 29.7779 25.3125 29.7779 24.9548V13.1565C29.7781 12.965 29.8204 12.7758 29.9018 12.6014C29.9832 12.4271 30.102 12.2715 30.2501 12.1452L38.5834 5.06614C38.8368 4.84997 39.1627 4.73075 39.5 4.73075C39.8374 4.73075 40.1632 4.84997 40.4167 5.06614L48.75 12.1452C48.8981 12.2715 49.0169 12.4271 49.0983 12.6014C49.1797 12.7758 49.2219 12.965 49.2222 13.1565V24.9548Z" fill="#FFB600"/>
</svg>
