<svg width="30" height="30" viewBox="0 0 30 30" fill="none" xmlns="http://www.w3.org/2000/svg">
<path d="M15 25C17.6522 25 20.1957 23.9464 22.0711 22.0711C23.9464 20.1957 25 17.6522 25 15C25 12.3478 23.9464 9.80429 22.0711 7.92893C20.1957 6.05357 17.6522 5 15 5C12.3478 5 9.8043 6.05357 7.92893 7.92893C6.05357 9.80429 5 12.3478 5 15C5 17.6522 6.05357 20.1957 7.92893 22.0711C9.8043 23.9464 12.3478 25 15 25ZM15 27.5C8.09625 27.5 2.5 21.9037 2.5 15C2.5 8.09625 8.09625 2.5 15 2.5C21.9038 2.5 27.5 8.09625 27.5 15C27.5 21.9037 21.9038 27.5 15 27.5Z" fill="white"/>
<path d="M15 12C14.2044 12 13.4413 12.3161 12.8787 12.8787C12.3161 13.4413 12 14.2044 12 15C12 15.7956 12.3161 16.5587 12.8787 17.1213C13.4413 17.6839 14.2044 18 15 18C15.7956 18 16.5587 17.6839 17.1213 17.1213C17.6839 16.5587 18 15.7956 18 15C18 14.2044 17.6839 13.4413 17.1213 12.8787C16.5587 12.3161 15.7956 12 15 12ZM15 16.9483C14.4831 16.9483 13.9874 16.743 13.6219 16.3775C13.2564 16.012 13.051 15.5162 13.051 14.9994C13.051 14.4825 13.2564 13.9867 13.6219 13.6212C13.9874 13.2557 14.4831 13.0504 15 13.0504C15.5169 13.0504 16.0126 13.2557 16.3781 13.6212C16.7436 13.9867 16.949 14.4825 16.949 14.9994C16.949 15.5162 16.7436 16.012 16.3781 16.3775C16.0126 16.743 15.5169 16.9483 15 16.9483Z" fill="white"/>
<path d="M18 13C18.5523 13 19 12.5523 19 12C19 11.4477 18.5523 11 18 11C17.4477 11 17 11.4477 17 12C17 12.5523 17.4477 13 18 13Z" fill="white"/>
<path d="M20.6821 11.0665C20.5279 10.6688 20.2921 10.3076 19.99 10.006C19.6879 9.70448 19.326 9.46924 18.9276 9.31537C18.4614 9.14062 17.9688 9.04614 17.4709 9.03593C16.8292 9.00798 16.6259 9 14.9987 9C13.3714 9 13.1628 9 12.5264 9.03593C12.0289 9.04561 11.5367 9.14012 11.0711 9.31537C10.6725 9.46906 10.3106 9.70424 10.0084 10.0058C9.70629 10.3074 9.47061 10.6687 9.31653 11.0665C9.14147 11.532 9.04706 12.0238 9.03732 12.521C9.00866 13.161 9 13.3639 9 14.9894C9 16.6141 9 16.821 9.03732 17.4578C9.04731 17.9554 9.14127 18.4464 9.31653 18.9128C9.47104 19.3106 9.70695 19.6717 10.0092 19.9732C10.3114 20.2748 10.6733 20.51 11.0717 20.664C11.5365 20.8458 12.0289 20.947 12.5278 20.9634C13.1695 20.9914 13.3727 21 15 21C16.6273 21 16.8359 21 17.4722 20.9634C17.9701 20.9533 18.4626 20.859 18.9289 20.6846C19.3272 20.5304 19.689 20.295 19.9911 19.9933C20.2932 19.6917 20.529 19.3305 20.6835 18.9328C20.8587 18.4671 20.9527 17.976 20.9627 17.4784C20.9913 16.8383 21 16.6354 21 15.01C21 13.3846 21 13.1783 20.9627 12.5416C20.9549 12.0374 20.86 11.5384 20.6821 11.0665ZM19.8705 17.4085C19.8662 17.792 19.7961 18.1718 19.6633 18.5316C19.5632 18.7903 19.41 19.0253 19.2135 19.2213C19.017 19.4174 18.7816 19.5702 18.5224 19.67C18.1661 19.802 17.7897 19.872 17.4096 19.8769C16.7765 19.9062 16.598 19.9135 14.9747 19.9135C13.3501 19.9135 13.1841 19.9135 12.5391 19.8769C12.1592 19.8723 11.783 19.8023 11.4269 19.67C11.1668 19.5708 10.9305 19.4183 10.7332 19.2222C10.5358 19.0261 10.3819 18.7908 10.2814 18.5316C10.1505 18.1757 10.0804 17.8003 10.0742 17.4212C10.0455 16.7891 10.0389 16.6108 10.0389 14.99C10.0389 13.3686 10.0389 13.2029 10.0742 12.5582C10.0785 12.175 10.1486 11.7954 10.2814 11.4358C10.4847 10.9108 10.9012 10.4977 11.4269 10.2967C11.7832 10.1651 12.1593 10.0951 12.5391 10.0898C13.1728 10.0612 13.3507 10.0532 14.9747 10.0532C16.5986 10.0532 16.7652 10.0532 17.4096 10.0898C17.7897 10.0944 18.1662 10.1644 18.5224 10.2967C18.7816 10.3967 19.017 10.5497 19.2134 10.7459C19.4099 10.942 19.5631 11.177 19.6633 11.4358C19.7942 11.7917 19.8643 12.1671 19.8705 12.5462C19.8992 13.179 19.9065 13.3566 19.9065 14.978C19.9065 16.5988 19.9065 16.7731 19.8778 17.4092H19.8705V17.4085Z" fill="white"/>
</svg>
