<svg width="30" height="30" viewBox="0 0 30 30" fill="none" xmlns="http://www.w3.org/2000/svg">
<path d="M21.25 16.4125V21.0337H18.5712V16.7212C18.5712 15.6387 18.1837 14.9 17.2137 14.9C16.4737 14.9 16.0325 15.3975 15.8387 15.88C15.7687 16.0525 15.75 16.2925 15.75 16.5325V21.0337H13.07C13.07 21.0337 13.1062 13.7312 13.07 12.975H15.75V14.1162L15.7325 14.1425H15.75V14.1175C16.1062 13.5675 16.7412 12.785 18.165 12.785C19.9275 12.785 21.25 13.9375 21.25 16.4125ZM10.2663 9.08875C9.35 9.08875 8.75 9.69125 8.75 10.4812C8.75 11.2562 9.3325 11.875 10.2313 11.875H10.2488C11.1837 11.875 11.765 11.255 11.765 10.4812C11.7475 9.69125 11.1837 9.08875 10.2663 9.08875ZM8.90875 21.0337H11.5887V12.975H8.90875V21.0337Z" fill="white"/>
<path d="M15 25C17.6522 25 20.1957 23.9464 22.0711 22.0711C23.9464 20.1957 25 17.6522 25 15C25 12.3478 23.9464 9.80429 22.0711 7.92893C20.1957 6.05357 17.6522 5 15 5C12.3478 5 9.8043 6.05357 7.92893 7.92893C6.05357 9.80429 5 12.3478 5 15C5 17.6522 6.05357 20.1957 7.92893 22.0711C9.8043 23.9464 12.3478 25 15 25ZM15 27.5C8.09625 27.5 2.5 21.9037 2.5 15C2.5 8.09625 8.09625 2.5 15 2.5C21.9038 2.5 27.5 8.09625 27.5 15C27.5 21.9037 21.9038 27.5 15 27.5Z" fill="white"/>
</svg>
