<svg width="80" height="31" viewBox="0 0 80 31" fill="none" xmlns="http://www.w3.org/2000/svg">
<path d="M49.9998 11.3728C49.9891 11.248 49.9634 11.125 49.9234 11.0064V10.881C49.8556 10.7463 49.7723 10.6201 49.6753 10.505L41.8004 2.405C41.6831 2.29954 41.5513 2.21184 41.4091 2.14464H41.2754C41.1556 2.07828 41.0271 2.02957 40.8936 2H32.9424C32.4229 1.9994 31.9086 2.10406 31.4298 2.30778C30.9511 2.51151 30.5177 2.81016 30.1552 3.18607C29.4121 3.94997 28.9971 4.979 29.0002 6.04998V24.9499C28.9949 25.4851 29.0942 26.0161 29.2924 26.5125C29.4906 27.0089 29.7838 27.461 30.1552 27.8427C30.5201 28.2134 30.9546 28.5067 31.4332 28.7054C31.9118 28.9041 32.4249 29.0042 32.9424 28.9999H46.0671C46.5851 28.9997 47.0978 28.8947 47.5749 28.691C48.052 28.4872 48.4838 28.189 48.8448 27.8138C49.2162 27.432 49.5094 26.98 49.7076 26.4836C49.9058 25.9872 50.0051 25.4562 49.9998 24.921V11.3728ZM42.125 6.55141L45.5231 10.1H43.4422C43.2676 10.1 43.0947 10.0649 42.9337 9.99685C42.7726 9.92878 42.6265 9.82903 42.5039 9.70341C42.3814 9.57779 42.2848 9.42881 42.2197 9.26513C42.1546 9.10145 42.1224 8.92633 42.125 8.74997V6.55141ZM47.3748 24.8727C47.3774 25.051 47.3449 25.228 47.2794 25.3935C47.2139 25.559 47.1165 25.7097 46.993 25.837C46.8685 25.9644 46.7197 26.0651 46.5557 26.133C46.3917 26.201 46.2158 26.2348 46.0385 26.2324H32.9424C32.7678 26.2324 32.5949 26.1973 32.4339 26.1293C32.2728 26.0612 32.1267 25.9614 32.0041 25.8358C31.8816 25.7102 31.785 25.5612 31.7199 25.3975C31.6548 25.2339 31.6226 25.0588 31.6251 24.8824V6.04998C31.6226 5.87361 31.6548 5.6985 31.7199 5.53482C31.785 5.37114 31.8816 5.22215 32.0041 5.09654C32.1267 4.97092 32.2728 4.87117 32.4339 4.8031C32.5949 4.73502 32.7678 4.69997 32.9424 4.69999H39.5V8.74997C39.4947 9.2852 39.594 9.81622 39.7922 10.3126C39.9904 10.809 40.2836 11.2611 40.655 11.6428C41.0175 12.0187 41.4509 12.3174 41.9296 12.5211C42.4084 12.7248 42.9227 12.8295 43.4422 12.8289H47.3748V24.8727Z" fill="#BDBDBD"/>
<path fill-rule="evenodd" clip-rule="evenodd" d="M33.2956 15.2203C33.2956 14.5546 33.8298 14.015 34.4887 14.015H44.5113C45.1702 14.015 45.7044 14.5546 45.7044 15.2203C45.7044 15.886 45.1702 16.4257 44.5113 16.4257H34.4887C33.8298 16.4257 33.2956 15.886 33.2956 15.2203Z" fill="#BDBDBD"/>
<path fill-rule="evenodd" clip-rule="evenodd" d="M33.2956 18.9135C33.2956 18.2478 33.8298 17.7081 34.4887 17.7081H44.5113C45.1702 17.7081 45.7044 18.2478 45.7044 18.9135C45.7044 19.5792 45.1702 20.1188 44.5113 20.1188H34.4887C33.8298 20.1188 33.2956 19.5792 33.2956 18.9135Z" fill="#BDBDBD"/>
<path fill-rule="evenodd" clip-rule="evenodd" d="M33.2956 22.6452C33.2956 21.9795 33.8298 21.4399 34.4887 21.4399H44.5113C45.1702 21.4399 45.7044 21.9795 45.7044 22.6452C45.7044 23.3109 45.1702 23.8506 44.5113 23.8506H34.4887C33.8298 23.8506 33.2956 23.3109 33.2956 22.6452Z" fill="#BDBDBD"/>
</svg>
