<svg width="80" height="31" viewBox="0 0 80 31" fill="none" xmlns="http://www.w3.org/2000/svg">
<path d="M50 11.369C49.9863 11.245 49.9599 11.1228 49.9213 11.0045V10.883C49.8581 10.7442 49.774 10.6166 49.6719 10.505L41.7969 2.405C41.6884 2.29999 41.5643 2.21341 41.4294 2.1485H41.2981C41.1705 2.0783 41.0333 2.02824 40.8913 2H32.9375C31.8932 2 30.8917 2.4267 30.1533 3.18622C29.4148 3.94574 29 4.97587 29 6.05V24.95C29 26.0241 29.4148 27.0543 30.1533 27.8138C30.8917 28.5733 31.8932 29 32.9375 29H46.0625C47.1068 29 48.1083 28.5733 48.8467 27.8138C49.5852 27.0543 50 26.0241 50 24.95V11.45V11.369ZM42.125 6.6035L45.5244 10.1H43.4375C43.0894 10.1 42.7556 9.95777 42.5094 9.70459C42.2633 9.45142 42.125 9.10804 42.125 8.75V6.6035ZM47.375 24.95C47.375 25.308 47.2367 25.6514 46.9906 25.9046C46.7444 26.1578 46.4106 26.3 46.0625 26.3H32.9375C32.5894 26.3 32.2556 26.1578 32.0094 25.9046C31.7633 25.6514 31.625 25.308 31.625 24.95V6.05C31.625 5.69196 31.7633 5.34858 32.0094 5.09541C32.2556 4.84223 32.5894 4.7 32.9375 4.7H39.5V8.75C39.5 9.82413 39.9148 10.8543 40.6533 11.6138C41.3917 12.3733 42.3932 12.8 43.4375 12.8H47.375V24.95ZM39.5 14.609C38.6863 14.1532 37.7396 14.016 36.8351 14.2228C35.9306 14.4297 35.1296 14.9666 34.5804 15.7341C34.0311 16.5016 33.7708 17.4478 33.8476 18.3976C33.9244 19.3474 34.3331 20.2363 34.9981 20.9L38.5681 24.572C38.6901 24.6985 38.8353 24.799 38.9952 24.8675C39.1552 24.936 39.3267 24.9713 39.5 24.9713C39.6733 24.9713 39.8448 24.936 40.0048 24.8675C40.1647 24.799 40.3099 24.6985 40.4319 24.572L44.0019 20.9C44.6669 20.2363 45.0756 19.3474 45.1524 18.3976C45.2292 17.4478 44.9689 16.5016 44.4196 15.7341C43.8704 14.9666 43.0694 14.4297 42.1649 14.2228C41.2604 14.016 40.3137 14.1532 39.5 14.609ZM42.125 17.2145C42.351 17.4474 42.478 17.763 42.478 18.092C42.478 18.421 42.351 18.7366 42.125 18.9695L39.5 21.6695L36.875 18.9695C36.649 18.7366 36.522 18.421 36.522 18.092C36.522 17.763 36.649 17.4474 36.875 17.2145C37.1014 16.982 37.4082 16.8515 37.7281 16.8515C38.048 16.8515 38.3549 16.982 38.5813 17.2145C38.7033 17.341 38.8484 17.4415 39.0084 17.51C39.1683 17.5785 39.3399 17.6138 39.5131 17.6138C39.6864 17.6138 39.8579 17.5785 40.0179 17.51C40.1778 17.4415 40.323 17.341 40.445 17.2145C40.6702 16.9902 40.9715 16.8647 41.285 16.8647C41.5985 16.8647 41.8998 16.9902 42.125 17.2145Z" fill="#FFB600"/>
</svg>
