<svg width="21" height="27" viewBox="0 0 21 27" fill="none" xmlns="http://www.w3.org/2000/svg">
<path d="M21 9.369C20.9863 9.24498 20.9599 9.1228 20.9213 9.0045V8.883C20.8581 8.74419 20.774 8.6166 20.6719 8.505L12.7969 0.405C12.6884 0.299992 12.5643 0.213409 12.4294 0.1485H12.2981C12.1705 0.0783041 12.0333 0.0282447 11.8913 0H3.9375C2.89321 0 1.89169 0.426695 1.15327 1.18622C0.414843 1.94574 0 2.97587 0 4.05V22.95C0 24.0241 0.414843 25.0543 1.15327 25.8138C1.89169 26.5733 2.89321 27 3.9375 27H17.0625C18.1068 27 19.1083 26.5733 19.8467 25.8138C20.5852 25.0543 21 24.0241 21 22.95V9.45V9.369ZM13.125 4.6035L16.5244 8.1H14.4375C14.0894 8.1 13.7556 7.95777 13.5094 7.70459C13.2633 7.45142 13.125 7.10804 13.125 6.75V4.6035ZM18.375 22.95C18.375 23.308 18.2367 23.6514 17.9906 23.9046C17.7444 24.1578 17.4106 24.3 17.0625 24.3H3.9375C3.5894 24.3 3.25556 24.1578 3.00942 23.9046C2.76328 23.6514 2.625 23.308 2.625 22.95V4.05C2.625 3.69196 2.76328 3.34858 3.00942 3.09541C3.25556 2.84223 3.5894 2.7 3.9375 2.7H10.5V6.75C10.5 7.82413 10.9148 8.85426 11.6533 9.61378C12.3917 10.3733 13.3932 10.8 14.4375 10.8H18.375V22.95ZM10.5 12.609C9.68629 12.1532 8.73959 12.016 7.83511 12.2228C6.93064 12.4297 6.12964 12.9666 5.58038 13.7341C5.03113 14.5016 4.77081 15.4478 4.84761 16.3976C4.92442 17.3474 5.33314 18.2363 5.99812 18.9L9.56812 22.572C9.69014 22.6985 9.8353 22.799 9.99524 22.8675C10.1552 22.936 10.3267 22.9713 10.5 22.9713C10.6733 22.9713 10.8448 22.936 11.0048 22.8675C11.1647 22.799 11.3099 22.6985 11.4319 22.572L15.0019 18.9C15.6669 18.2363 16.0756 17.3474 16.1524 16.3976C16.2292 15.4478 15.9689 14.5016 15.4196 13.7341C14.8704 12.9666 14.0694 12.4297 13.1649 12.2228C12.2604 12.016 11.3137 12.1532 10.5 12.609ZM13.125 15.2145C13.351 15.4474 13.478 15.763 13.478 16.092C13.478 16.421 13.351 16.7366 13.125 16.9695L10.5 19.6695L7.875 16.9695C7.64898 16.7366 7.52204 16.421 7.52204 16.092C7.52204 15.763 7.64898 15.4474 7.875 15.2145C8.10139 14.982 8.40822 14.8515 8.72812 14.8515C9.04803 14.8515 9.35486 14.982 9.58125 15.2145C9.70326 15.341 9.84843 15.4415 10.0084 15.51C10.1683 15.5785 10.3399 15.6138 10.5131 15.6138C10.6864 15.6138 10.8579 15.5785 11.0179 15.51C11.1778 15.4415 11.323 15.341 11.445 15.2145C11.6702 14.9902 11.9715 14.8647 12.285 14.8647C12.5985 14.8647 12.8998 14.9902 13.125 15.2145Z" fill="#BDBDBD"/>
</svg>
