<svg width="24" height="24" viewBox="0 0 24 24" fill="none" xmlns="http://www.w3.org/2000/svg">
<path fill-rule="evenodd" clip-rule="evenodd" d="M10.435 2C5.79818 2 2 5.64539 2 10.1587C2 14.672 5.79818 18.3174 10.435 18.3174C12.0545 18.3174 13.6061 17.8785 14.9591 17.0414L19.4625 21.5633C19.7442 21.8458 20.1228 22 20.5223 22C20.9007 22 21.2642 21.8603 21.5415 21.6026C22.1357 21.0505 22.1556 20.1283 21.5824 19.5528L17.1452 15.0973C18.261 13.6822 18.8701 11.9542 18.8701 10.1587C18.8701 5.64539 15.0719 2 10.435 2ZM16.3483 10.1587C16.3483 7.01069 13.6957 4.44971 10.435 4.44971C7.17442 4.44971 4.52181 7.01069 4.52181 10.1587C4.52181 13.3067 7.17442 15.8677 10.435 15.8677C13.6957 15.8677 16.3483 13.3067 16.3483 10.1587Z" fill="#FFB600"/>
</svg>
