<svg width="25" height="25" viewBox="0 0 25 25" fill="none" xmlns="http://www.w3.org/2000/svg">
<path d="M17.881 15.2257C16.9253 15.2249 16.0081 15.6041 15.3295 16.2805L9.73809 13.0161C9.75596 12.8438 9.75596 12.6701 9.73809 12.4978C9.74708 12.3525 9.74708 12.2067 9.73809 12.0614L15.3838 8.76976C15.987 9.34767 16.7702 9.69865 17.6011 9.76341C18.432 9.82818 19.2597 9.60276 19.9443 9.12523C20.629 8.6477 21.1287 7.94733 21.359 7.14239C21.5894 6.33746 21.5362 5.4773 21.2086 4.7072C20.8809 3.93709 20.2988 3.30422 19.5607 2.91549C18.8225 2.52675 17.9734 2.40597 17.1569 2.57355C16.3403 2.74112 15.6064 3.18678 15.0789 3.83525C14.5515 4.48372 14.2629 5.29527 14.2619 6.13283C14.2574 6.17514 14.2574 6.21781 14.2619 6.26013L8.39905 9.66995C7.75384 9.14547 6.94889 8.85976 6.11905 8.86069C5.15922 8.86069 4.2387 9.24389 3.55999 9.92598C2.88129 10.6081 2.5 11.5332 2.5 12.4978C2.5 13.4625 2.88129 14.3876 3.55999 15.0697C4.2387 15.7518 5.15922 16.135 6.11905 16.135C6.91937 16.1367 7.69697 15.8676 8.32667 15.3712L14.2619 18.8628C14.2619 19.5822 14.4742 20.2854 14.8718 20.8835C15.2695 21.4817 15.8347 21.9478 16.496 22.2231C17.1573 22.4984 17.885 22.5705 18.587 22.4301C19.289 22.2898 19.9339 21.9434 20.44 21.4347C20.9461 20.926 21.2908 20.278 21.4305 19.5724C21.5701 18.8669 21.4984 18.1356 21.2245 17.471C20.9506 16.8064 20.4867 16.2383 19.8916 15.8387C19.2964 15.439 18.5967 15.2257 17.881 15.2257Z" fill="#9D6500"/>
</svg>
