<svg width="30" height="30" viewBox="0 0 30 30" fill="none" xmlns="http://www.w3.org/2000/svg">
<path d="M15 25C17.6522 25 20.1957 23.9464 22.0711 22.0711C23.9464 20.1957 25 17.6522 25 15C25 12.3478 23.9464 9.80429 22.0711 7.92893C20.1957 6.05357 17.6522 5 15 5C12.3478 5 9.8043 6.05357 7.92893 7.92893C6.05357 9.80429 5 12.3478 5 15C5 17.6522 6.05357 20.1957 7.92893 22.0711C9.8043 23.9464 12.3478 25 15 25ZM15 27.5C8.09625 27.5 2.5 21.9037 2.5 15C2.5 8.09625 8.09625 2.5 15 2.5C21.9037 2.5 27.5 8.09625 27.5 15C27.5 21.9037 21.9037 27.5 15 27.5Z" fill="white"/>
<path d="M21.25 11.1838C20.79 11.3838 20.2962 11.5213 19.7775 11.5813C20.3075 11.2688 20.7125 10.7738 20.905 10.185C20.4 10.4793 19.8489 10.6864 19.275 10.7975C19.0336 10.5445 18.7432 10.3433 18.4215 10.2062C18.0997 10.069 17.7535 9.99891 17.4038 10C15.9875 10 14.84 11.1313 14.84 12.525C14.84 12.7225 14.8625 12.915 14.9062 13.1C13.8904 13.0518 12.8958 12.7923 11.9858 12.3382C11.0758 11.8841 10.2705 11.2453 9.62125 10.4625C9.3932 10.8464 9.27314 11.2848 9.27375 11.7313C9.27375 12.6063 9.7275 13.3813 10.415 13.8325C10.0081 13.8197 9.60983 13.7114 9.2525 13.5163V13.5475C9.25636 14.1343 9.4635 14.7017 9.83865 15.153C10.2138 15.6042 10.7338 15.9115 11.31 16.0225C10.9317 16.1225 10.5359 16.1371 10.1513 16.065C10.3189 16.5698 10.6396 17.01 11.0688 17.3242C11.498 17.6385 12.0144 17.8113 12.5462 17.8188C11.6337 18.522 10.5133 18.9019 9.36125 18.8988C9.155 18.8988 8.95125 18.8863 8.75 18.8638C9.92559 19.6079 11.2887 20.002 12.68 20C17.3975 20 19.9762 16.1525 19.9762 12.815L19.9675 12.4875C20.4704 12.1341 20.9049 11.6924 21.25 11.1838Z" fill="white"/>
</svg>
