<svg width="18" height="19" viewBox="0 0 18 19" fill="none" xmlns="http://www.w3.org/2000/svg">
<path fill-rule="evenodd" clip-rule="evenodd" d="M13.2845 4.47849C12.062 3.43537 10.501 2.87441 8.89445 2.9009C7.28787 2.92738 5.74618 3.53948 4.55869 4.62234C3.37121 5.70519 2.61957 7.18435 2.44482 8.78223C2.27008 10.3801 2.68425 11.9869 3.60961 13.301C3.77525 13.5362 3.80642 13.8407 3.69186 14.1047L2.9434 15.829L5.59464 15.3564C5.76703 15.3256 5.94472 15.3506 6.10198 15.4276C7.54508 16.1345 9.19644 16.2902 10.7461 15.8655C12.2958 15.4408 13.6374 14.465 14.5189 13.1211C15.4005 11.7772 15.7615 10.1577 15.5343 8.56646C15.307 6.9752 14.507 5.52162 13.2845 4.47849ZM8.86727 1.25112C10.8755 1.21802 12.8268 1.91921 14.3549 3.22312C15.883 4.52703 16.883 6.34401 17.1671 8.33307C17.4511 10.3221 16.9999 12.3465 15.8979 14.0264C14.7959 15.7062 13.119 16.926 11.1819 17.4569C9.33358 17.9634 7.36958 17.8094 5.6264 17.0267L1.71938 17.7233C1.42025 17.7766 1.11604 17.6611 0.927651 17.4226C0.739264 17.1841 0.697224 16.8613 0.818241 16.5825L2.0008 13.858C1.02782 12.2935 0.603952 10.4434 0.805242 8.60279C1.02367 6.60544 1.96322 4.75649 3.44758 3.40292C4.93194 2.04936 6.85905 1.28423 8.86727 1.25112ZM6.06042 6.13605C6.2924 5.90398 6.60705 5.7736 6.93512 5.7736C7.2632 5.7736 7.57784 5.90398 7.80983 6.13605C8.04182 6.36813 8.17215 6.6829 8.17215 7.0111V7.8361C8.17215 8.1643 8.04182 8.47906 7.80983 8.71114C7.72641 8.79459 7.6323 8.8649 7.53073 8.92071C7.69272 9.38637 7.95852 9.81429 8.31364 10.1695C8.66876 10.5248 9.09652 10.7907 9.56199 10.9528C9.61779 10.8511 9.68806 10.757 9.77148 10.6736C10.0035 10.4415 10.3181 10.3111 10.6462 10.3111H11.4709C11.799 10.3111 12.1136 10.4415 12.3456 10.6736C12.5776 10.9056 12.7079 11.2204 12.7079 11.5486C12.7079 11.8768 12.5776 12.1916 12.3456 12.4236C12.1136 12.6557 11.799 12.7861 11.4709 12.7861H10.6462C9.33388 12.7861 8.07531 12.2646 7.14736 11.3363C6.21942 10.408 5.6981 9.14892 5.6981 7.8361V7.0111C5.6981 6.6829 5.82843 6.36813 6.06042 6.13605Z" fill="white"/>
</svg>
