<svg width="30" height="30" viewBox="0 0 30 30" fill="none" xmlns="http://www.w3.org/2000/svg">
<path d="M15 25C17.6522 25 20.1957 23.9464 22.0711 22.0711C23.9464 20.1957 25 17.6522 25 15C25 12.3478 23.9464 9.80429 22.0711 7.92893C20.1957 6.05357 17.6522 5 15 5C12.3478 5 9.8043 6.05357 7.92893 7.92893C6.05357 9.80429 5 12.3478 5 15C5 17.6522 6.05357 20.1957 7.92893 22.0711C9.8043 23.9464 12.3478 25 15 25ZM15 27.5C8.09625 27.5 2.5 21.9037 2.5 15C2.5 8.09625 8.09625 2.5 15 2.5C21.9038 2.5 27.5 8.09625 27.5 15C27.5 21.9037 21.9038 27.5 15 27.5Z" fill="white"/>
<path d="M18.6538 10.6575H11.3462C9.9125 10.6575 8.75 11.8075 8.75 13.225V16.8375C8.75 18.2563 9.9125 19.405 11.3462 19.405H18.6538C20.0875 19.405 21.25 18.255 21.25 16.8375V13.225C21.25 11.8063 20.0875 10.6575 18.6538 10.6575ZM16.8988 15.2075L13.48 16.82C13.4591 16.8299 13.436 16.8344 13.4129 16.833C13.3898 16.8316 13.3675 16.8244 13.3479 16.812C13.3283 16.7997 13.3122 16.7826 13.301 16.7624C13.2898 16.7421 13.2838 16.7194 13.2837 16.6963V13.3713C13.284 13.3479 13.2902 13.3249 13.3017 13.3045C13.3133 13.2841 13.3299 13.2671 13.35 13.2549C13.37 13.2428 13.3928 13.236 13.4162 13.2351C13.4396 13.2342 13.4629 13.2394 13.4837 13.25L16.9012 14.9625C16.9237 14.9743 16.9425 14.992 16.9555 15.0138C16.9686 15.0355 16.9753 15.0604 16.9751 15.0858C16.9748 15.1112 16.9675 15.1359 16.9541 15.1574C16.9406 15.1789 16.9215 15.1962 16.8988 15.2075Z" fill="white"/>
</svg>
